<?xml version="1.0" encoding="UTF-8"?>
<!DOCTYPE svg PUBLIC "-//W3C//DTD SVG 1.1//EN" "http://www.w3.org/Graphics/SVG/1.1/DTD/svg11.dtd">
<!-- Creator: CorelDRAW -->
<svg xmlns="http://www.w3.org/2000/svg" xml:space="preserve" width="211.377mm" height="149.362mm" version="1.1" style="shape-rendering:geometricPrecision; text-rendering:geometricPrecision; image-rendering:optimizeQuality; fill-rule:evenodd; clip-rule:evenodd"
viewBox="0 0 4779.64 3377.35"
 xmlns:xlink="http://www.w3.org/1999/xlink"
 xmlns:xodm="http://www.corel.com/coreldraw/odm/2003">
 <defs>
  <style type="text/css">
   <![CDATA[
    .fil3 {fill:none}
    .fil6 {fill:#FEFEFE}
    .fil2 {fill:#FEFEFE}
    .fil8 {fill:#E6E7E8}
    .fil10 {fill:#7700FF}
    .fil5 {fill:url(#id15)}
    .fil4 {fill:url(#id16)}
    .fil1 {fill:url(#id17)}
    .fil0 {fill:url(#id18)}
    .fil9 {fill:url(#id19)}
    .fil7 {fill:url(#id20)}
   ]]>
  </style>
    <clipPath id="id0">
     <path d="M1753.31 2086.21c-174.63,447.55 -296.73,708.35 -366.29,782.39 224.92,379.99 444.66,415.1 659.24,105.36 169.27,-244.37 370.87,-882.82 493.93,-1188.07 274.19,-680.14 488.53,-1182.35 643.02,-1506.64 52.53,-110.27 98.14,-199.97 136.84,-269.09 -206.75,-25.93 -388.53,-2.24 -545.33,71.07 -351.3,164.24 -413.72,446.11 -546.33,777.12 -139.61,348.5 -297.97,757.79 -475.08,1227.87z"/>
    </clipPath>
      <mask id="id1">
  <linearGradient id="id2" gradientUnits="userSpaceOnUse" x1="1474.23" y1="2421.77" x2="3194.35" y2="531.55">
   <stop offset="0" style="stop-opacity:0.14902; stop-color:white"/>
   <stop offset="1" style="stop-opacity:0.0509804; stop-color:white"/>
  </linearGradient>
       <rect style="fill:url(#id2)" x="1346.28" y="-2.26" width="1976.02" height="2957.84"/>
      </mask>
    <mask id="id3">
  <linearGradient id="id4" gradientUnits="userSpaceOnUse" x1="2859.26" y1="1772.94" x2="4354.16" y2="1772.94">
   <stop offset="0" style="stop-opacity:0; stop-color:white"/>
   <stop offset="1" style="stop-opacity:1; stop-color:white"/>
  </linearGradient>
     <rect style="fill:url(#id4)" x="2859.26" y="279.25" width="1494.9" height="2987.38"/>
    </mask>
    <mask id="id5">
  <linearGradient id="id6" gradientUnits="userSpaceOnUse" x1="3101.66" y1="1218.09" x2="4178.36" y2="3069.27">
   <stop offset="0" style="stop-opacity:0.101961; stop-color:white"/>
   <stop offset="1" style="stop-opacity:0.431373; stop-color:white"/>
  </linearGradient>
     <rect style="fill:url(#id6)" x="2818.34" y="1000.87" width="1643.33" height="2285.61"/>
    </mask>
    <mask id="id7">
  <linearGradient id="id8" gradientUnits="userSpaceOnUse" x1="1543.53" y1="1651.66" x2="3322.06" y2="1541.12">
   <stop offset="0" style="stop-opacity:0; stop-color:white"/>
   <stop offset="1" style="stop-opacity:0.368627; stop-color:white"/>
  </linearGradient>
     <rect style="fill:url(#id8)" x="1545.56" y="10.16" width="1774.48" height="3172.45"/>
    </mask>
    <mask id="id9">
  <linearGradient id="id10" gradientUnits="userSpaceOnUse" x1="1440.78" y1="2185.06" x2="-99.54" y2="423.14">
   <stop offset="0" style="stop-opacity:0; stop-color:white"/>
   <stop offset="1" style="stop-opacity:0.509804; stop-color:white"/>
  </linearGradient>
     <rect style="fill:url(#id10)" y="17.89" width="1534.02" height="2644.88"/>
    </mask>
    <mask id="id11">
  <linearGradient id="id12" gradientUnits="userSpaceOnUse" x1="4481.05" y1="2789.65" x2="2609.56" y2="597.87">
   <stop offset="0" style="stop-opacity:0; stop-color:white"/>
   <stop offset="1" style="stop-opacity:0.458824; stop-color:white"/>
  </linearGradient>
     <rect style="fill:url(#id12)" x="2526.94" y="10.16" width="2036.73" height="3367.19"/>
    </mask>
    <mask id="id13">
  <linearGradient id="id14" gradientUnits="userSpaceOnUse" x1="-26.52" y1="943.5" x2="1779.83" y2="1940.7">
   <stop offset="0" style="stop-opacity:0; stop-color:white"/>
   <stop offset="1" style="stop-opacity:0.458824; stop-color:white"/>
  </linearGradient>
     <rect style="fill:url(#id14)" y="15.6" width="1753.31" height="2853.01"/>
    </mask>
  <linearGradient id="id15" gradientUnits="userSpaceOnUse" x1="2859.26" y1="1772.94" x2="4354.16" y2="1772.94">
   <stop offset="0" style="stop-opacity:1; stop-color:#34BBF1"/>
   <stop offset="1" style="stop-opacity:1; stop-color:white"/>
  </linearGradient>
  <linearGradient id="id16" gradientUnits="userSpaceOnUse" x1="2521.29" y1="844.95" x2="4569.32" y2="2542.57">
   <stop offset="0" style="stop-opacity:1; stop-color:#181D9F"/>
   <stop offset="1" style="stop-opacity:1; stop-color:#00A6FF"/>
  </linearGradient>
  <linearGradient id="id17" gradientUnits="userSpaceOnUse" x1="1846.22" y1="3040.61" x2="2860.83" y2="142.01">
   <stop offset="0" style="stop-opacity:1; stop-color:#3200A6"/>
   <stop offset="0.490196" style="stop-opacity:1; stop-color:#2D73E2"/>
   <stop offset="1" style="stop-opacity:1; stop-color:#37DBF7"/>
  </linearGradient>
  <linearGradient id="id18" gradientUnits="userSpaceOnUse" x1="1641.93" y1="2428.81" x2="111.37" y2="455.39">
   <stop offset="0" style="stop-opacity:1; stop-color:#181D9F"/>
   <stop offset="1" style="stop-opacity:1; stop-color:#37DBF7"/>
  </linearGradient>
  <linearGradient id="id19" gradientUnits="userSpaceOnUse" x1="3172.38" y1="2594.01" x2="4779.64" y2="2594.01">
   <stop offset="0" style="stop-opacity:1; stop-color:#181D9F"/>
   <stop offset="1" style="stop-opacity:1; stop-color:#32BAE8"/>
  </linearGradient>
  <linearGradient id="id20" gradientUnits="userSpaceOnUse" x1="1641.93" y1="2428.81" x2="111.37" y2="455.39">
   <stop offset="0" style="stop-opacity:1; stop-color:#181D9F"/>
   <stop offset="1" style="stop-opacity:1; stop-color:#00D9FF"/>
  </linearGradient>
 </defs>
 <g id="Camada_x0020_1">
  <metadata id="CorelCorpID_0Corel-Layer"/>
  <g id="_2794139966176">
   <path class="fil0" d="M1387.01 2868.6c69.57,-74.04 191.66,-334.84 366.29,-782.39 -339.52,-774.49 -492.47,-1394.07 -736.86,-1713.1 -288.68,-376.87 -566.61,-362.66 -1016.45,-354.92 131.59,75.73 288.81,273.53 371.29,404.33 283.44,449.5 504.83,1268.12 1015.72,2446.09z"/>
   <path class="fil1" d="M1753.31 2086.21c-174.63,447.55 -296.73,708.35 -366.29,782.39 224.92,379.99 444.66,415.1 659.24,105.36 169.27,-244.37 370.87,-882.82 493.93,-1188.07 274.19,-680.14 488.53,-1182.35 643.02,-1506.64 52.53,-110.27 98.14,-199.97 136.84,-269.09 -206.75,-25.93 -388.53,-2.24 -545.33,71.07 -351.3,164.24 -413.72,446.11 -546.33,777.12 -139.61,348.5 -297.97,757.79 -475.08,1227.87z"/>
   <g style="clip-path:url(#id0)">
    <g>
     <path id="_1" class="fil2" style="mask:url(#id1)" d="M1413.42 2953.32c76.11,-116.3 193.67,-369.2 353.57,-764.97 192.18,-491.29 408.23,-1108.72 559.02,-1472.94 143.22,-345.94 189.19,-482.53 545.76,-654.17 136.96,-65.92 296.83,-56.93 448.12,-50.82 0.05,-0.08 0.09,-0.17 0.14,-0.25 -149.41,-18.74 -285.77,-11.56 -409.09,21.52 -47.33,12.7 -92.75,29.21 -136.24,49.54 -351.3,164.24 -413.72,446.11 -546.33,777.12 -139.61,348.5 -297.97,757.79 -475.08,1227.87 -174.63,447.55 -335.2,776.06 -404.76,850.1 19.1,32.26 45.85,-10.28 64.88,17.01z"/>
    </g>
   </g>
   <path class="fil3" d="M1753.31 2086.21c-174.63,447.55 -296.73,708.35 -366.29,782.39 224.92,379.99 444.66,415.1 659.24,105.36 169.27,-244.37 370.87,-882.82 493.93,-1188.07 274.19,-680.14 488.53,-1182.35 643.02,-1506.64 52.53,-110.27 98.14,-199.97 136.84,-269.09 -206.75,-25.93 -388.53,-2.24 -545.33,71.07 -351.3,164.24 -413.72,446.11 -546.33,777.12 -139.61,348.5 -297.97,757.79 -475.08,1227.87z"/>
   <path class="fil4" d="M2527.13 2131.76c-6.01,454.74 130.4,794.45 399.02,984.41 333.78,236.05 742.87,338.17 1126.27,196.29 206.65,-76.47 382.59,-209.58 511.25,-379.22 -416.81,472.06 -1023.13,309.28 -1264.84,-305.89 -73.11,-186.07 -122.65,-408.07 -125.16,-664.1l146.36 -1953.09c-207.8,332.85 -505.67,1095.59 -779.86,1775.73 -5.64,30.55 -12.64,315.14 -13.05,345.87z"/>
   <path class="fil5" style="mask:url(#id3)" d="M2863.36 1000.87c-5.15,262.03 -6.41,636.38 1.89,914.77 4.63,155.4 14.9,301.08 34.32,420.07 3.2,19.6 7,39.23 11.38,58.87 80.43,360.51 357.06,720.41 713.93,834.97 254.56,81.72 507.42,22.12 729.29,-117.5 -530.33,316.69 -1183.88,-181.94 -1180.49,-1148.79l-33.3 -1684c-76.2,159.94 -124.12,363.16 -229.43,609.65 -15.54,36.38 -31.4,73.71 -47.58,111.97z"/>
   <path class="fil2" style="mask:url(#id5)" d="M2865.25 1915.65c-8.3,-278.4 -7.03,-652.74 -1.89,-914.77 -13.99,33.09 -28.22,66.88 -42.68,101.38 -4.11,298.95 -1.73,601.06 -0.9,811.14 0.61,155.24 6.78,296.31 27.87,424.65 13.24,80.61 34.72,158.62 63.29,232.95 239.52,623.09 978.02,988.05 1550.73,465.4 -34.65,29.3 -70.6,54.46 -107.51,75.65 -221.87,139.63 -474.73,199.22 -729.29,117.5 -356.87,-114.56 -633.5,-474.45 -713.93,-834.97 -4.38,-19.63 -8.18,-39.27 -11.38,-58.87 -19.41,-118.98 -29.68,-264.67 -34.32,-420.07z"/>
   <path class="fil6" style="mask:url(#id7)" d="M2259.03 2448.68c-200.1,516.84 -398.89,792.15 -713.47,631.49 169.91,165.76 336.81,130.36 500.69,-106.21 169.27,-244.37 370.87,-882.82 493.93,-1188.07 101.74,-252.38 195.25,-480.26 280.51,-683.64 14.46,-34.5 28.69,-68.29 42.68,-101.38 16.18,-38.27 32.04,-75.59 47.58,-111.97 105.31,-246.49 196.06,-449.71 272.26,-609.65 52.53,-110.27 98.14,-199.97 136.84,-269.09 -147.91,241.95 -283.24,511.65 -409.09,792.4 -245.71,548.12 -455.31,1138.3 -651.92,1646.12z"/>
   <path class="fil7" d="M1387.01 2868.6c1.05,-1.12 2.11,-2.28 3.19,-3.48l0.29 -0.33c1.02,-1.15 2.05,-2.33 3.1,-3.56l0.21 -0.25c1.08,-1.27 2.17,-2.58 3.27,-3.93l0.12 -0.15c1.1,-1.35 2.21,-2.74 3.33,-4.17l0.16 -0.2 0.16 -0.21c1.09,-1.4 2.19,-2.83 3.3,-4.3l0.31 -0.41c1.11,-1.47 2.23,-2.99 3.36,-4.54l0.3 -0.4c1.18,-1.62 2.37,-3.28 3.57,-4.99l0.05 -0.07 0.12 -0.17c1.2,-1.7 2.41,-3.44 3.62,-5.22l0.24 -0.35c1.18,-1.73 2.37,-3.49 3.57,-5.29l0.4 -0.6c1.16,-1.74 2.33,-3.52 3.5,-5.33l0.45 -0.69c1.27,-1.96 2.56,-3.96 3.85,-6l0.05 -0.08c1.3,-2.06 2.63,-4.17 3.95,-6.31l0.44 -0.71c1.26,-2.04 2.53,-4.11 3.82,-6.23l0.29 -0.48c1.3,-2.14 2.6,-4.32 3.92,-6.53l0.24 -0.41 0.28 -0.47c1.27,-2.14 2.55,-4.32 3.85,-6.54l0.25 -0.43 0.13 -0.22c1.41,-2.41 2.83,-4.87 4.26,-7.37l0.14 -0.25c2.97,-5.19 5.99,-10.56 9.07,-16.12l0.09 -0.16c1.48,-2.68 2.98,-5.4 4.49,-8.17l0.32 -0.6c3.04,-5.59 6.13,-11.34 9.26,-17.26l0.19 -0.36c1.56,-2.95 3.14,-5.94 4.72,-8.97l0.13 -0.24c1.6,-3.06 3.2,-6.16 4.83,-9.3l0.38 -0.73c1.47,-2.85 2.95,-5.73 4.43,-8.65l0.79 -1.55 4.32 -8.53 0.47 -0.92 0.26 -0.52c3.29,-6.55 6.63,-13.26 10.01,-20.14l0.5 -1.01c1.63,-3.33 3.28,-6.68 4.93,-10.08l0.33 -0.67 0.55 -1.15c-279.2,-788.87 -477.42,-1544.38 -760.48,-1989.89 -174.5,-274.65 -471.16,-508.39 -721.7,-637.72 0.81,0.55 1.63,1.13 2.45,1.69 0.85,0.58 1.7,1.16 2.55,1.75 1.27,0.88 2.53,1.78 3.8,2.68l2.35 1.67c1.25,0.89 2.49,1.81 3.74,2.72l2.51 1.83c1.19,0.88 2.39,1.78 3.59,2.68 0.87,0.65 1.74,1.29 2.61,1.95l0.1 0.08c1.99,1.51 3.98,3.03 5.97,4.58l0.09 0.07 0.9 0.71c1.77,1.38 3.55,2.77 5.32,4.19l1.89 1.52c1.43,1.14 2.85,2.29 4.28,3.45l2.62 2.15c1.2,0.99 2.4,1.97 3.6,2.97l2.76 2.32 3.53 2.98 2.62 2.24 3.73 3.21 2.7 2.35 3.41 2.99 2.86 2.53 3.71 3.33 2.39 2.16 3.84 3.5 2.65 2.44 3.38 3.14 2.94 2.75 3.57 3.38 2.61 2.48 4.27 4.1 1.82 1.76c1.41,1.36 2.81,2.74 4.21,4.12l2.3 2.26 4.19 4.15 1.85 1.83 0.26 0.26c2,2 4,4.02 6,6.04l0.18 0.18c1.94,1.96 3.88,3.94 5.81,5.93l0.21 0.21 3.11 3.22 3.08 3.2 3.57 3.74 2.41 2.53 3.51 3.73 2.85 3.03 2.94 3.16 3.27 3.53 2.82 3.06 3.26 3.56 2.98 3.28 3.01 3.33 2.91 3.23 3.27 3.65 3.02 3.39 2.97 3.36 2.67 3.03 3.8 4.35 2.3 2.64 3.46 4.01 2.52 2.93 3.13 3.66 2.88 3.38 0.16 0.18c1.83,2.16 3.66,4.33 5.48,6.5l0.16 0.19 5.6 6.71 3.53 4.26 2.27 2.75 2.95 3.6 2.75 3.36 3.11 3.83 2.49 3.07 3.14 3.91 2.51 3.13 3.06 3.84 2.48 3.12 3.18 4.04 2.16 2.75 3.25 4.16 2.28 2.92 3.15 4.07 2.22 2.87 2.91 3.8 2.96 3.88 2.25 2.95 2.72 3.6 2.72 3.61 2.49 3.33 2.53 3.39 4.66 6.28 0.26 0.35c1.74,2.36 3.47,4.72 5.19,7.07l0.07 0.09c1.61,2.2 3.2,4.39 4.79,6.58l0.28 0.38 4.44 6.17 0.13 0.19 3.07 4.3 1.75 2.46 2.56 3.62 2.26 3.2 2.29 3.27 2.46 3.52 2.21 3.18 2.21 3.2 2.28 3.31 2.46 3.59 1.86 2.73 2.55 3.76 1.83 2.72 2.46 3.66 1.97 2.95 2.28 3.43 1.69 2.55 2.85 4.34 1.31 2 2.35 3.62 1.76 2.72 0.23 0.35 3.48 5.42 0.27 0.42c1.23,1.93 2.45,3.86 3.65,5.76 283.44,449.5 504.83,1268.12 1015.72,2446.09zm-1084.72 -2546.64c1.74,2.36 3.47,4.72 5.19,7.07"/>
   <path class="fil8" style="mask:url(#id9)" d="M1509.17 2662.76c-279.2,-788.87 -477.42,-1544.38 -760.48,-1989.89 -174.49,-274.63 -471.12,-508.34 -721.65,-637.67 -9.11,-6.18 -18.13,-11.89 -27.04,-17.01l16.94 -0.3c289.17,126.58 608.53,367.42 767.67,631.32 314.17,521.01 542.82,1391.11 749.41,1961.27l-0.33 0.7 -24.29 51.11 -0.01 0.02 -0.07 0.14 -0.05 0.12 -0.04 0.09 -0.06 0.11z"/>
   <path class="fil9" d="M3173.67 1963.26c0.48,1140.47 875.03,1617 1390,969.99 110.04,-145.1 185.49,-316.93 215.97,-502.92 -195.46,348.12 -605.08,515.58 -988.43,404.08 -383.35,-111.49 -639.27,-472.51 -617.54,-871.16z"/>
   <path class="fil10" style="mask:url(#id11)" d="M2527.13 2131.76c-6.01,454.74 130.4,794.45 399.02,984.41 333.78,236.05 742.87,338.17 1126.27,196.29 206.65,-76.47 382.59,-209.58 511.25,-379.22 -416.81,472.06 -1023.13,309.28 -1264.84,-305.89 -73.11,-186.07 -122.65,-408.07 -125.16,-664.1l146.36 -1953.09c-195.5,303.82 -505.67,1095.59 -779.86,1775.73 -5.64,30.55 -12.64,315.14 -13.05,345.87z"/>
   <path class="fil10" style="mask:url(#id13)" d="M27.05 35.18c0.03,0.02 0.07,0.05 0.1,0.07 687.51,354.99 1277.32,659.38 -0.1,-0.07zm1506.98 2575.29c60.42,-129.71 133.51,-304.46 219.28,-524.26 -339.52,-774.49 -492.47,-1394.07 -736.86,-1713.1 -285.04,-372.11 -559.59,-362.95 -999.51,-355.22l0 0c-5.62,0.1 -11.27,0.2 -16.94,0.29 8.89,5.11 17.9,10.79 26.99,16.96 0.02,0.01 0.04,0.02 0.06,0.04 0.03,0.02 0.07,0.05 0.1,0.07 0.76,0.52 1.53,1.04 2.3,1.57 0.85,0.58 1.7,1.17 2.55,1.76 1.27,0.88 2.54,1.78 3.81,2.68 0.78,0.55 1.56,1.11 2.35,1.68 1.25,0.89 2.5,1.8 3.75,2.71 0.83,0.61 1.66,1.22 2.5,1.84 1.2,0.88 2.39,1.77 3.59,2.67 0.87,0.65 1.74,1.3 2.6,1.96 0.04,0.02 0.07,0.05 0.1,0.08 1.99,1.51 3.98,3.03 5.97,4.58 0.03,0.02 0.06,0.05 0.09,0.07 0.3,0.23 0.6,0.47 0.9,0.7 1.77,1.38 3.54,2.78 5.32,4.19 0.63,0.5 1.26,1.01 1.89,1.51 1.42,1.14 2.85,2.3 4.28,3.46 0.88,0.71 1.75,1.43 2.63,2.15 1.2,0.99 2.39,1.98 3.59,2.97 0.92,0.77 1.84,1.54 2.77,2.31 1.18,0.99 2.35,1.98 3.53,2.98 0.87,0.74 1.75,1.49 2.62,2.24 1.24,1.07 2.49,2.14 3.73,3.22 0.9,0.78 1.8,1.56 2.7,2.35 1.14,0.99 2.27,1.99 3.4,2.99 0.95,0.84 1.9,1.68 2.86,2.53 1.24,1.1 2.48,2.21 3.72,3.33 0.8,0.72 1.59,1.44 2.39,2.16 1.28,1.16 2.56,2.33 3.84,3.5 0.88,0.81 1.77,1.62 2.65,2.44 1.13,1.04 2.25,2.09 3.38,3.14 0.98,0.91 1.96,1.83 2.94,2.75 1.19,1.12 2.38,2.24 3.57,3.37 0.87,0.83 1.74,1.65 2.61,2.49 1.42,1.36 2.85,2.72 4.27,4.1 0.61,0.59 1.21,1.17 1.82,1.76 1.41,1.37 2.81,2.74 4.22,4.11 0.77,0.75 1.54,1.51 2.3,2.26 1.4,1.38 2.79,2.76 4.19,4.15 0.62,0.61 1.23,1.22 1.84,1.84 0.09,0.09 0.17,0.17 0.26,0.26 2,2 4,4.02 6,6.04 0.06,0.06 0.12,0.12 0.18,0.18 1.94,1.96 3.87,3.94 5.81,5.93 0.07,0.07 0.14,0.14 0.21,0.21 1.04,1.07 2.08,2.14 3.12,3.21 1.03,1.06 2.05,2.13 3.08,3.2 1.19,1.24 2.39,2.49 3.57,3.74 0.8,0.84 1.61,1.69 2.41,2.53 1.17,1.24 2.34,2.48 3.51,3.72 0.95,1.01 1.9,2.02 2.84,3.03 0.98,1.05 1.96,2.11 2.95,3.16 1.09,1.18 2.18,2.35 3.27,3.53 0.94,1.02 1.88,2.04 2.82,3.06 1.09,1.18 2.18,2.37 3.26,3.56 0.99,1.09 1.99,2.18 2.98,3.28 1.01,1.11 2.01,2.22 3.01,3.33 0.97,1.08 1.94,2.15 2.91,3.23 1.09,1.21 2.18,2.43 3.27,3.65 1.01,1.13 2.01,2.26 3.01,3.4 0.99,1.12 1.98,2.24 2.97,3.36 0.89,1.01 1.78,2.02 2.66,3.03 1.27,1.45 2.53,2.9 3.8,4.35 0.76,0.88 1.53,1.76 2.3,2.64 1.16,1.33 2.31,2.67 3.46,4 0.84,0.98 1.68,1.96 2.52,2.94 1.04,1.22 2.09,2.44 3.13,3.66 0.96,1.13 1.92,2.25 2.88,3.38 0.05,0.06 0.1,0.12 0.15,0.19 1.83,2.16 3.66,4.33 5.48,6.5 0.05,0.06 0.11,0.13 0.16,0.19 1.87,2.23 3.74,4.47 5.6,6.71 1.18,1.42 2.36,2.84 3.53,4.26 0.76,0.92 1.51,1.83 2.27,2.75 0.99,1.2 1.97,2.4 2.95,3.6 0.92,1.12 1.83,2.24 2.75,3.36 1.04,1.28 2.08,2.55 3.11,3.83 0.83,1.03 1.66,2.05 2.49,3.08 1.05,1.3 2.1,2.6 3.14,3.91 0.84,1.04 1.67,2.08 2.51,3.13 1.02,1.28 2.04,2.56 3.06,3.84 0.83,1.04 1.65,2.08 2.48,3.12 1.07,1.35 2.13,2.69 3.19,4.04 0.72,0.92 1.44,1.83 2.16,2.75 1.09,1.39 2.17,2.77 3.25,4.16 0.76,0.97 1.52,1.95 2.27,2.92 1.05,1.36 2.11,2.72 3.15,4.07 0.74,0.96 1.48,1.92 2.22,2.87 0.97,1.27 1.94,2.53 2.91,3.8 0.99,1.3 1.98,2.59 2.97,3.88 0.75,0.98 1.5,1.97 2.24,2.95 0.91,1.2 1.82,2.4 2.72,3.6 0.91,1.2 1.81,2.41 2.72,3.61 0.83,1.11 1.66,2.22 2.49,3.33 0.85,1.13 1.69,2.26 2.53,3.39 1.56,2.1 3.11,4.19 4.66,6.29 0.09,0.12 0.17,0.23 0.26,0.35 1.74,2.36 3.47,4.72 5.19,7.07 0.02,0.03 0.05,0.06 0.07,0.09 1.61,2.2 3.2,4.39 4.79,6.58l0.28 0.38c1.49,2.06 2.97,4.12 4.44,6.17 0.05,0.06 0.09,0.12 0.13,0.18 1.03,1.44 2.06,2.87 3.08,4.3 0.59,0.82 1.17,1.64 1.75,2.46 0.86,1.21 1.71,2.41 2.56,3.62 0.76,1.07 1.51,2.13 2.26,3.2 0.77,1.09 1.53,2.18 2.29,3.27 0.82,1.17 1.64,2.35 2.46,3.52 0.74,1.06 1.48,2.12 2.21,3.18 0.74,1.07 1.48,2.13 2.21,3.2 0.76,1.11 1.52,2.21 2.28,3.31 0.83,1.2 1.64,2.4 2.46,3.59 0.62,0.91 1.24,1.82 1.86,2.73 0.85,1.26 1.7,2.51 2.55,3.76 0.61,0.91 1.22,1.81 1.83,2.72 0.83,1.22 1.64,2.44 2.46,3.66 0.66,0.99 1.32,1.97 1.97,2.95 0.76,1.15 1.52,2.29 2.28,3.43 0.56,0.85 1.12,1.7 1.68,2.55 0.96,1.45 1.91,2.9 2.85,4.34 0.44,0.67 0.88,1.34 1.31,2 0.79,1.21 1.58,2.42 2.36,3.62 0.59,0.91 1.17,1.81 1.76,2.72 0.07,0.12 0.15,0.23 0.22,0.35 1.17,1.82 2.33,3.62 3.48,5.42 0.09,0.14 0.18,0.28 0.27,0.42 1.23,1.93 2.45,3.86 3.65,5.76 283.44,449.5 504.83,1268.12 1015.72,2446.09 1.05,-1.12 2.11,-2.28 3.19,-3.48l0.29 -0.33c1.02,-1.15 2.05,-2.33 3.1,-3.56l0.21 -0.25c1.08,-1.27 2.17,-2.58 3.27,-3.93l0.12 -0.15c1.1,-1.35 2.21,-2.74 3.33,-4.17l0.16 -0.2 0.16 -0.21c1.09,-1.4 2.19,-2.83 3.3,-4.3l0.31 -0.41c1.11,-1.47 2.23,-2.99 3.36,-4.54l0.3 -0.4c1.18,-1.62 2.37,-3.28 3.57,-4.99l0.05 -0.07c0.04,-0.06 0.08,-0.11 0.12,-0.17 1.2,-1.7 2.41,-3.44 3.62,-5.22l0.24 -0.35c1.18,-1.73 2.37,-3.49 3.57,-5.29l0.4 -0.6c1.16,-1.74 2.33,-3.52 3.5,-5.33l0.45 -0.69c1.27,-1.96 2.56,-3.96 3.85,-6l0.05 -0.08c1.3,-2.06 2.63,-4.17 3.95,-6.31l0.44 -0.71c1.26,-2.04 2.53,-4.11 3.82,-6.23l0.29 -0.48c1.3,-2.14 2.6,-4.32 3.92,-6.53l0.24 -0.41c0.09,-0.16 0.18,-0.31 0.28,-0.47 1.27,-2.14 2.56,-4.32 3.85,-6.54 0.08,-0.14 0.17,-0.29 0.25,-0.43l0.13 -0.22c1.41,-2.41 2.83,-4.87 4.26,-7.37l0.14 -0.25c2.97,-5.19 5.99,-10.56 9.07,-16.12l0.09 -0.16c1.48,-2.68 2.98,-5.41 4.49,-8.17l0.32 -0.6c3.04,-5.59 6.13,-11.34 9.26,-17.26l0.19 -0.36c1.56,-2.95 3.14,-5.94 4.72,-8.97 0.04,-0.08 0.08,-0.16 0.13,-0.24 1.6,-3.06 3.2,-6.16 4.83,-9.3l0.38 -0.73c1.47,-2.85 2.95,-5.73 4.43,-8.65l0.79 -1.55 4.32 -8.53 0.47 -0.92c0.09,-0.17 0.17,-0.35 0.26,-0.52 3.29,-6.55 6.63,-13.26 10.01,-20.14l0.5 -1.01c1.63,-3.33 3.28,-6.68 4.93,-10.08l0.33 -0.67 0.55 -1.15 0.06 -0.11 0.04 -0.09 0.05 -0.12 0.08 -0.16 24.29 -51.11 0.33 -0.7z"/>
  </g>
 </g>
</svg>
